<mxfile host="app.diagrams.net" agent="Mozilla/5.0 (Windows NT 10.0; Win64; x64) AppleWebKit/537.36 (KHTML, like Gecko) Chrome/133.0.0.0 Safari/537.36" version="24.8.8">
  <diagram name="Page-1" id="dau8JehxTpbNqtHmnUFZ">
    <mxGraphModel dx="2643" dy="2075" grid="1" gridSize="10" guides="1" tooltips="1" connect="1" arrows="1" fold="1" page="1" pageScale="1" pageWidth="850" pageHeight="1100" math="0" shadow="0">
      <root>
        <mxCell id="0" />
        <mxCell id="1" parent="0" />
        <mxCell id="ENTs0Gk-KkbxcG8ZbWc0-6" style="edgeStyle=orthogonalEdgeStyle;rounded=0;orthogonalLoop=1;jettySize=auto;html=1;exitX=0.5;exitY=1;exitDx=0;exitDy=0;entryX=0.5;entryY=0;entryDx=0;entryDy=0;" edge="1" parent="1" source="ENTs0Gk-KkbxcG8ZbWc0-2" target="ENTs0Gk-KkbxcG8ZbWc0-3">
          <mxGeometry relative="1" as="geometry" />
        </mxCell>
        <mxCell id="ENTs0Gk-KkbxcG8ZbWc0-45" style="edgeStyle=orthogonalEdgeStyle;rounded=0;orthogonalLoop=1;jettySize=auto;html=1;exitX=0.5;exitY=1;exitDx=0;exitDy=0;entryX=0.5;entryY=0;entryDx=0;entryDy=0;" edge="1" parent="1" source="ENTs0Gk-KkbxcG8ZbWc0-2" target="ENTs0Gk-KkbxcG8ZbWc0-4">
          <mxGeometry relative="1" as="geometry" />
        </mxCell>
        <mxCell id="ENTs0Gk-KkbxcG8ZbWc0-2" value="start" style="rounded=0;whiteSpace=wrap;html=1;" vertex="1" parent="1">
          <mxGeometry x="20" y="-210" width="120" height="60" as="geometry" />
        </mxCell>
        <mxCell id="ENTs0Gk-KkbxcG8ZbWc0-10" style="edgeStyle=orthogonalEdgeStyle;rounded=0;orthogonalLoop=1;jettySize=auto;html=1;exitX=0.5;exitY=1;exitDx=0;exitDy=0;entryX=0.5;entryY=0;entryDx=0;entryDy=0;" edge="1" parent="1" source="ENTs0Gk-KkbxcG8ZbWc0-3" target="ENTs0Gk-KkbxcG8ZbWc0-9">
          <mxGeometry relative="1" as="geometry" />
        </mxCell>
        <mxCell id="ENTs0Gk-KkbxcG8ZbWc0-11" style="edgeStyle=orthogonalEdgeStyle;rounded=0;orthogonalLoop=1;jettySize=auto;html=1;exitX=1;exitY=0.5;exitDx=0;exitDy=0;" edge="1" parent="1" source="ENTs0Gk-KkbxcG8ZbWc0-3" target="ENTs0Gk-KkbxcG8ZbWc0-8">
          <mxGeometry relative="1" as="geometry" />
        </mxCell>
        <mxCell id="ENTs0Gk-KkbxcG8ZbWc0-3" value="accept" style="rounded=0;whiteSpace=wrap;html=1;" vertex="1" parent="1">
          <mxGeometry x="20" y="20" width="120" height="60" as="geometry" />
        </mxCell>
        <mxCell id="ENTs0Gk-KkbxcG8ZbWc0-4" value="reject" style="rounded=0;whiteSpace=wrap;html=1;" vertex="1" parent="1">
          <mxGeometry x="220" y="-80" width="120" height="60" as="geometry" />
        </mxCell>
        <mxCell id="ENTs0Gk-KkbxcG8ZbWc0-36" style="edgeStyle=orthogonalEdgeStyle;rounded=0;orthogonalLoop=1;jettySize=auto;html=1;exitX=1;exitY=0.5;exitDx=0;exitDy=0;entryX=0;entryY=0.5;entryDx=0;entryDy=0;" edge="1" parent="1" source="ENTs0Gk-KkbxcG8ZbWc0-8" target="ENTs0Gk-KkbxcG8ZbWc0-34">
          <mxGeometry relative="1" as="geometry" />
        </mxCell>
        <mxCell id="ENTs0Gk-KkbxcG8ZbWc0-48" style="edgeStyle=orthogonalEdgeStyle;rounded=0;orthogonalLoop=1;jettySize=auto;html=1;exitX=1;exitY=0.5;exitDx=0;exitDy=0;" edge="1" parent="1" source="ENTs0Gk-KkbxcG8ZbWc0-8" target="ENTs0Gk-KkbxcG8ZbWc0-35">
          <mxGeometry relative="1" as="geometry" />
        </mxCell>
        <mxCell id="ENTs0Gk-KkbxcG8ZbWc0-8" value="bring sean" style="rounded=0;whiteSpace=wrap;html=1;" vertex="1" parent="1">
          <mxGeometry x="340" y="20" width="120" height="60" as="geometry" />
        </mxCell>
        <mxCell id="ENTs0Gk-KkbxcG8ZbWc0-46" style="edgeStyle=orthogonalEdgeStyle;rounded=0;orthogonalLoop=1;jettySize=auto;html=1;exitX=0.5;exitY=1;exitDx=0;exitDy=0;entryX=0.5;entryY=0;entryDx=0;entryDy=0;" edge="1" parent="1" source="ENTs0Gk-KkbxcG8ZbWc0-9" target="ENTs0Gk-KkbxcG8ZbWc0-13">
          <mxGeometry relative="1" as="geometry" />
        </mxCell>
        <mxCell id="ENTs0Gk-KkbxcG8ZbWc0-9" value="dont bring sean" style="rounded=0;whiteSpace=wrap;html=1;" vertex="1" parent="1">
          <mxGeometry x="20" y="140" width="120" height="60" as="geometry" />
        </mxCell>
        <mxCell id="ENTs0Gk-KkbxcG8ZbWc0-17" style="edgeStyle=orthogonalEdgeStyle;rounded=0;orthogonalLoop=1;jettySize=auto;html=1;exitX=0.5;exitY=1;exitDx=0;exitDy=0;entryX=0.5;entryY=0;entryDx=0;entryDy=0;" edge="1" parent="1" source="ENTs0Gk-KkbxcG8ZbWc0-12" target="ENTs0Gk-KkbxcG8ZbWc0-16">
          <mxGeometry relative="1" as="geometry" />
        </mxCell>
        <mxCell id="ENTs0Gk-KkbxcG8ZbWc0-47" style="edgeStyle=orthogonalEdgeStyle;rounded=0;orthogonalLoop=1;jettySize=auto;html=1;exitX=0.5;exitY=1;exitDx=0;exitDy=0;entryX=0.5;entryY=0;entryDx=0;entryDy=0;" edge="1" parent="1" source="ENTs0Gk-KkbxcG8ZbWc0-12" target="ENTs0Gk-KkbxcG8ZbWc0-18">
          <mxGeometry relative="1" as="geometry" />
        </mxCell>
        <mxCell id="ENTs0Gk-KkbxcG8ZbWc0-12" value="lever 1" style="rounded=0;whiteSpace=wrap;html=1;" vertex="1" parent="1">
          <mxGeometry x="-20" y="250" width="120" height="60" as="geometry" />
        </mxCell>
        <mxCell id="ENTs0Gk-KkbxcG8ZbWc0-21" style="edgeStyle=orthogonalEdgeStyle;rounded=0;orthogonalLoop=1;jettySize=auto;html=1;exitX=0.5;exitY=1;exitDx=0;exitDy=0;entryX=0.5;entryY=0;entryDx=0;entryDy=0;" edge="1" parent="1" source="ENTs0Gk-KkbxcG8ZbWc0-13" target="ENTs0Gk-KkbxcG8ZbWc0-20">
          <mxGeometry relative="1" as="geometry" />
        </mxCell>
        <mxCell id="ENTs0Gk-KkbxcG8ZbWc0-23" style="edgeStyle=orthogonalEdgeStyle;rounded=0;orthogonalLoop=1;jettySize=auto;html=1;exitX=0.5;exitY=1;exitDx=0;exitDy=0;entryX=0.5;entryY=0;entryDx=0;entryDy=0;" edge="1" parent="1" source="ENTs0Gk-KkbxcG8ZbWc0-13" target="ENTs0Gk-KkbxcG8ZbWc0-22">
          <mxGeometry relative="1" as="geometry" />
        </mxCell>
        <mxCell id="ENTs0Gk-KkbxcG8ZbWc0-13" value="lever 2" style="rounded=0;whiteSpace=wrap;html=1;" vertex="1" parent="1">
          <mxGeometry x="240" y="250" width="120" height="60" as="geometry" />
        </mxCell>
        <mxCell id="ENTs0Gk-KkbxcG8ZbWc0-14" style="edgeStyle=orthogonalEdgeStyle;rounded=0;orthogonalLoop=1;jettySize=auto;html=1;exitX=0.5;exitY=1;exitDx=0;exitDy=0;entryX=0.549;entryY=-0.007;entryDx=0;entryDy=0;entryPerimeter=0;" edge="1" parent="1" source="ENTs0Gk-KkbxcG8ZbWc0-9" target="ENTs0Gk-KkbxcG8ZbWc0-12">
          <mxGeometry relative="1" as="geometry" />
        </mxCell>
        <mxCell id="ENTs0Gk-KkbxcG8ZbWc0-16" value="higher ground" style="rounded=0;whiteSpace=wrap;html=1;" vertex="1" parent="1">
          <mxGeometry x="-140" y="350" width="120" height="60" as="geometry" />
        </mxCell>
        <mxCell id="ENTs0Gk-KkbxcG8ZbWc0-18" value="stop sand" style="rounded=0;whiteSpace=wrap;html=1;" vertex="1" parent="1">
          <mxGeometry x="40" y="350" width="120" height="60" as="geometry" />
        </mxCell>
        <mxCell id="ENTs0Gk-KkbxcG8ZbWc0-20" value="make bigger path" style="rounded=0;whiteSpace=wrap;html=1;" vertex="1" parent="1">
          <mxGeometry x="180" y="350" width="120" height="60" as="geometry" />
        </mxCell>
        <mxCell id="ENTs0Gk-KkbxcG8ZbWc0-25" style="edgeStyle=orthogonalEdgeStyle;rounded=0;orthogonalLoop=1;jettySize=auto;html=1;exitX=0.5;exitY=1;exitDx=0;exitDy=0;entryX=0.5;entryY=0;entryDx=0;entryDy=0;" edge="1" parent="1" source="ENTs0Gk-KkbxcG8ZbWc0-22" target="ENTs0Gk-KkbxcG8ZbWc0-24">
          <mxGeometry relative="1" as="geometry" />
        </mxCell>
        <mxCell id="ENTs0Gk-KkbxcG8ZbWc0-27" style="edgeStyle=orthogonalEdgeStyle;rounded=0;orthogonalLoop=1;jettySize=auto;html=1;exitX=0.5;exitY=1;exitDx=0;exitDy=0;" edge="1" parent="1" source="ENTs0Gk-KkbxcG8ZbWc0-22" target="ENTs0Gk-KkbxcG8ZbWc0-26">
          <mxGeometry relative="1" as="geometry" />
        </mxCell>
        <mxCell id="ENTs0Gk-KkbxcG8ZbWc0-22" value="continue" style="rounded=0;whiteSpace=wrap;html=1;" vertex="1" parent="1">
          <mxGeometry x="330" y="350" width="120" height="60" as="geometry" />
        </mxCell>
        <mxCell id="ENTs0Gk-KkbxcG8ZbWc0-31" style="edgeStyle=orthogonalEdgeStyle;rounded=0;orthogonalLoop=1;jettySize=auto;html=1;exitX=0.5;exitY=1;exitDx=0;exitDy=0;" edge="1" parent="1" source="ENTs0Gk-KkbxcG8ZbWc0-24" target="ENTs0Gk-KkbxcG8ZbWc0-28">
          <mxGeometry relative="1" as="geometry" />
        </mxCell>
        <mxCell id="ENTs0Gk-KkbxcG8ZbWc0-43" style="edgeStyle=orthogonalEdgeStyle;rounded=0;orthogonalLoop=1;jettySize=auto;html=1;exitX=0.5;exitY=1;exitDx=0;exitDy=0;entryX=0.5;entryY=0;entryDx=0;entryDy=0;" edge="1" parent="1" source="ENTs0Gk-KkbxcG8ZbWc0-24" target="ENTs0Gk-KkbxcG8ZbWc0-29">
          <mxGeometry relative="1" as="geometry" />
        </mxCell>
        <mxCell id="ENTs0Gk-KkbxcG8ZbWc0-44" style="edgeStyle=orthogonalEdgeStyle;rounded=0;orthogonalLoop=1;jettySize=auto;html=1;exitX=0.5;exitY=1;exitDx=0;exitDy=0;entryX=0.5;entryY=0;entryDx=0;entryDy=0;" edge="1" parent="1" source="ENTs0Gk-KkbxcG8ZbWc0-24" target="ENTs0Gk-KkbxcG8ZbWc0-30">
          <mxGeometry relative="1" as="geometry" />
        </mxCell>
        <mxCell id="ENTs0Gk-KkbxcG8ZbWc0-24" value="entrance 1" style="rounded=0;whiteSpace=wrap;html=1;" vertex="1" parent="1">
          <mxGeometry x="270" y="440" width="120" height="60" as="geometry" />
        </mxCell>
        <mxCell id="ENTs0Gk-KkbxcG8ZbWc0-26" value="entrance 2" style="rounded=0;whiteSpace=wrap;html=1;" vertex="1" parent="1">
          <mxGeometry x="600" y="440" width="120" height="60" as="geometry" />
        </mxCell>
        <mxCell id="ENTs0Gk-KkbxcG8ZbWc0-28" value="hole 1" style="rounded=0;whiteSpace=wrap;html=1;" vertex="1" parent="1">
          <mxGeometry x="120" y="550" width="120" height="60" as="geometry" />
        </mxCell>
        <mxCell id="ENTs0Gk-KkbxcG8ZbWc0-29" value="hole 2" style="rounded=0;whiteSpace=wrap;html=1;" vertex="1" parent="1">
          <mxGeometry x="260" y="550" width="120" height="60" as="geometry" />
        </mxCell>
        <mxCell id="ENTs0Gk-KkbxcG8ZbWc0-30" value="find escape" style="rounded=0;whiteSpace=wrap;html=1;" vertex="1" parent="1">
          <mxGeometry x="400" y="550" width="120" height="60" as="geometry" />
        </mxCell>
        <mxCell id="ENTs0Gk-KkbxcG8ZbWc0-39" style="edgeStyle=orthogonalEdgeStyle;rounded=0;orthogonalLoop=1;jettySize=auto;html=1;exitX=1;exitY=0.5;exitDx=0;exitDy=0;entryX=0;entryY=0.5;entryDx=0;entryDy=0;" edge="1" parent="1" source="ENTs0Gk-KkbxcG8ZbWc0-34" target="ENTs0Gk-KkbxcG8ZbWc0-38">
          <mxGeometry relative="1" as="geometry" />
        </mxCell>
        <mxCell id="ENTs0Gk-KkbxcG8ZbWc0-42" style="edgeStyle=orthogonalEdgeStyle;rounded=0;orthogonalLoop=1;jettySize=auto;html=1;exitX=1;exitY=0.5;exitDx=0;exitDy=0;entryX=0;entryY=0.5;entryDx=0;entryDy=0;" edge="1" parent="1" source="ENTs0Gk-KkbxcG8ZbWc0-34" target="ENTs0Gk-KkbxcG8ZbWc0-40">
          <mxGeometry relative="1" as="geometry" />
        </mxCell>
        <mxCell id="ENTs0Gk-KkbxcG8ZbWc0-34" value="lever 1" style="rounded=0;whiteSpace=wrap;html=1;" vertex="1" parent="1">
          <mxGeometry x="500" y="-40" width="120" height="60" as="geometry" />
        </mxCell>
        <mxCell id="ENTs0Gk-KkbxcG8ZbWc0-59" style="edgeStyle=orthogonalEdgeStyle;rounded=0;orthogonalLoop=1;jettySize=auto;html=1;exitX=1;exitY=0.5;exitDx=0;exitDy=0;" edge="1" parent="1" source="ENTs0Gk-KkbxcG8ZbWc0-35" target="ENTs0Gk-KkbxcG8ZbWc0-58">
          <mxGeometry relative="1" as="geometry" />
        </mxCell>
        <mxCell id="ENTs0Gk-KkbxcG8ZbWc0-61" style="edgeStyle=orthogonalEdgeStyle;rounded=0;orthogonalLoop=1;jettySize=auto;html=1;exitX=1;exitY=0.5;exitDx=0;exitDy=0;entryX=0;entryY=0.5;entryDx=0;entryDy=0;" edge="1" parent="1" source="ENTs0Gk-KkbxcG8ZbWc0-35" target="ENTs0Gk-KkbxcG8ZbWc0-60">
          <mxGeometry relative="1" as="geometry" />
        </mxCell>
        <mxCell id="ENTs0Gk-KkbxcG8ZbWc0-35" value="lever 2" style="rounded=0;whiteSpace=wrap;html=1;" vertex="1" parent="1">
          <mxGeometry x="500" y="70" width="120" height="60" as="geometry" />
        </mxCell>
        <mxCell id="ENTs0Gk-KkbxcG8ZbWc0-38" value="higher ground" style="rounded=0;whiteSpace=wrap;html=1;" vertex="1" parent="1">
          <mxGeometry x="640" y="-130" width="120" height="60" as="geometry" />
        </mxCell>
        <mxCell id="ENTs0Gk-KkbxcG8ZbWc0-51" style="edgeStyle=orthogonalEdgeStyle;rounded=0;orthogonalLoop=1;jettySize=auto;html=1;exitX=1;exitY=0.5;exitDx=0;exitDy=0;entryX=0;entryY=0.5;entryDx=0;entryDy=0;" edge="1" parent="1" source="ENTs0Gk-KkbxcG8ZbWc0-40" target="ENTs0Gk-KkbxcG8ZbWc0-49">
          <mxGeometry relative="1" as="geometry" />
        </mxCell>
        <mxCell id="ENTs0Gk-KkbxcG8ZbWc0-53" style="edgeStyle=orthogonalEdgeStyle;rounded=0;orthogonalLoop=1;jettySize=auto;html=1;exitX=1;exitY=0.5;exitDx=0;exitDy=0;entryX=0;entryY=0.5;entryDx=0;entryDy=0;" edge="1" parent="1" source="ENTs0Gk-KkbxcG8ZbWc0-40" target="ENTs0Gk-KkbxcG8ZbWc0-52">
          <mxGeometry relative="1" as="geometry" />
        </mxCell>
        <mxCell id="ENTs0Gk-KkbxcG8ZbWc0-40" value="stop sand" style="rounded=0;whiteSpace=wrap;html=1;" vertex="1" parent="1">
          <mxGeometry x="650" y="-40" width="120" height="60" as="geometry" />
        </mxCell>
        <mxCell id="ENTs0Gk-KkbxcG8ZbWc0-55" style="edgeStyle=orthogonalEdgeStyle;rounded=0;orthogonalLoop=1;jettySize=auto;html=1;exitX=1;exitY=0.5;exitDx=0;exitDy=0;entryX=0;entryY=0.5;entryDx=0;entryDy=0;" edge="1" parent="1" source="ENTs0Gk-KkbxcG8ZbWc0-49" target="ENTs0Gk-KkbxcG8ZbWc0-54">
          <mxGeometry relative="1" as="geometry" />
        </mxCell>
        <mxCell id="ENTs0Gk-KkbxcG8ZbWc0-57" style="edgeStyle=orthogonalEdgeStyle;rounded=0;orthogonalLoop=1;jettySize=auto;html=1;exitX=1;exitY=0.5;exitDx=0;exitDy=0;" edge="1" parent="1" source="ENTs0Gk-KkbxcG8ZbWc0-49" target="ENTs0Gk-KkbxcG8ZbWc0-56">
          <mxGeometry relative="1" as="geometry" />
        </mxCell>
        <mxCell id="ENTs0Gk-KkbxcG8ZbWc0-49" value="entrance 1" style="rounded=0;whiteSpace=wrap;html=1;" vertex="1" parent="1">
          <mxGeometry x="880" width="120" height="60" as="geometry" />
        </mxCell>
        <mxCell id="ENTs0Gk-KkbxcG8ZbWc0-70" style="edgeStyle=orthogonalEdgeStyle;rounded=0;orthogonalLoop=1;jettySize=auto;html=1;exitX=1;exitY=0.5;exitDx=0;exitDy=0;entryX=0;entryY=0.5;entryDx=0;entryDy=0;" edge="1" parent="1" source="ENTs0Gk-KkbxcG8ZbWc0-52" target="ENTs0Gk-KkbxcG8ZbWc0-69">
          <mxGeometry relative="1" as="geometry" />
        </mxCell>
        <mxCell id="ENTs0Gk-KkbxcG8ZbWc0-72" style="edgeStyle=orthogonalEdgeStyle;rounded=0;orthogonalLoop=1;jettySize=auto;html=1;exitX=1;exitY=0.5;exitDx=0;exitDy=0;entryX=0;entryY=0.5;entryDx=0;entryDy=0;" edge="1" parent="1" source="ENTs0Gk-KkbxcG8ZbWc0-52" target="ENTs0Gk-KkbxcG8ZbWc0-71">
          <mxGeometry relative="1" as="geometry" />
        </mxCell>
        <mxCell id="ENTs0Gk-KkbxcG8ZbWc0-52" value="entrance 2" style="rounded=0;whiteSpace=wrap;html=1;" vertex="1" parent="1">
          <mxGeometry x="880" y="210" width="120" height="60" as="geometry" />
        </mxCell>
        <mxCell id="ENTs0Gk-KkbxcG8ZbWc0-54" value="mouse" style="rounded=0;whiteSpace=wrap;html=1;" vertex="1" parent="1">
          <mxGeometry x="1060" y="-40" width="120" height="60" as="geometry" />
        </mxCell>
        <mxCell id="ENTs0Gk-KkbxcG8ZbWc0-68" style="edgeStyle=orthogonalEdgeStyle;rounded=0;orthogonalLoop=1;jettySize=auto;html=1;exitX=1;exitY=0.5;exitDx=0;exitDy=0;entryX=0.5;entryY=1;entryDx=0;entryDy=0;" edge="1" parent="1" source="ENTs0Gk-KkbxcG8ZbWc0-56" target="ENTs0Gk-KkbxcG8ZbWc0-58">
          <mxGeometry relative="1" as="geometry" />
        </mxCell>
        <mxCell id="ENTs0Gk-KkbxcG8ZbWc0-56" value="cricket" style="rounded=0;whiteSpace=wrap;html=1;" vertex="1" parent="1">
          <mxGeometry x="1060" y="60" width="120" height="60" as="geometry" />
        </mxCell>
        <mxCell id="ENTs0Gk-KkbxcG8ZbWc0-66" style="edgeStyle=orthogonalEdgeStyle;rounded=0;orthogonalLoop=1;jettySize=auto;html=1;exitX=1;exitY=0.5;exitDx=0;exitDy=0;entryX=0;entryY=0.5;entryDx=0;entryDy=0;" edge="1" parent="1" source="ENTs0Gk-KkbxcG8ZbWc0-58" target="ENTs0Gk-KkbxcG8ZbWc0-49">
          <mxGeometry relative="1" as="geometry" />
        </mxCell>
        <mxCell id="ENTs0Gk-KkbxcG8ZbWc0-67" style="edgeStyle=orthogonalEdgeStyle;rounded=0;orthogonalLoop=1;jettySize=auto;html=1;exitX=1;exitY=0.5;exitDx=0;exitDy=0;entryX=0;entryY=0.5;entryDx=0;entryDy=0;" edge="1" parent="1" source="ENTs0Gk-KkbxcG8ZbWc0-58" target="ENTs0Gk-KkbxcG8ZbWc0-52">
          <mxGeometry relative="1" as="geometry" />
        </mxCell>
        <mxCell id="ENTs0Gk-KkbxcG8ZbWc0-58" value="path 1" style="rounded=0;whiteSpace=wrap;html=1;" vertex="1" parent="1">
          <mxGeometry x="680" y="110" width="120" height="60" as="geometry" />
        </mxCell>
        <mxCell id="ENTs0Gk-KkbxcG8ZbWc0-60" value="path 2" style="rounded=0;whiteSpace=wrap;html=1;" vertex="1" parent="1">
          <mxGeometry x="680" y="240" width="120" height="60" as="geometry" />
        </mxCell>
        <mxCell id="ENTs0Gk-KkbxcG8ZbWc0-74" style="edgeStyle=orthogonalEdgeStyle;rounded=0;orthogonalLoop=1;jettySize=auto;html=1;exitX=1;exitY=0.5;exitDx=0;exitDy=0;" edge="1" parent="1" source="ENTs0Gk-KkbxcG8ZbWc0-69" target="ENTs0Gk-KkbxcG8ZbWc0-73">
          <mxGeometry relative="1" as="geometry" />
        </mxCell>
        <mxCell id="ENTs0Gk-KkbxcG8ZbWc0-76" style="edgeStyle=orthogonalEdgeStyle;rounded=0;orthogonalLoop=1;jettySize=auto;html=1;exitX=1;exitY=0.5;exitDx=0;exitDy=0;" edge="1" parent="1" source="ENTs0Gk-KkbxcG8ZbWc0-69" target="ENTs0Gk-KkbxcG8ZbWc0-75">
          <mxGeometry relative="1" as="geometry" />
        </mxCell>
        <mxCell id="ENTs0Gk-KkbxcG8ZbWc0-69" value="attempt" style="rounded=0;whiteSpace=wrap;html=1;" vertex="1" parent="1">
          <mxGeometry x="1040" y="210" width="120" height="60" as="geometry" />
        </mxCell>
        <mxCell id="ENTs0Gk-KkbxcG8ZbWc0-71" value="leave" style="rounded=0;whiteSpace=wrap;html=1;" vertex="1" parent="1">
          <mxGeometry x="1040" y="360" width="120" height="60" as="geometry" />
        </mxCell>
        <mxCell id="ENTs0Gk-KkbxcG8ZbWc0-78" style="edgeStyle=orthogonalEdgeStyle;rounded=0;orthogonalLoop=1;jettySize=auto;html=1;exitX=1;exitY=0.5;exitDx=0;exitDy=0;entryX=0;entryY=0.5;entryDx=0;entryDy=0;" edge="1" parent="1" source="ENTs0Gk-KkbxcG8ZbWc0-73" target="ENTs0Gk-KkbxcG8ZbWc0-77">
          <mxGeometry relative="1" as="geometry" />
        </mxCell>
        <mxCell id="ENTs0Gk-KkbxcG8ZbWc0-80" style="edgeStyle=orthogonalEdgeStyle;rounded=0;orthogonalLoop=1;jettySize=auto;html=1;exitX=1;exitY=0.5;exitDx=0;exitDy=0;" edge="1" parent="1" source="ENTs0Gk-KkbxcG8ZbWc0-73" target="ENTs0Gk-KkbxcG8ZbWc0-79">
          <mxGeometry relative="1" as="geometry" />
        </mxCell>
        <mxCell id="ENTs0Gk-KkbxcG8ZbWc0-73" value="puzzle" style="rounded=0;whiteSpace=wrap;html=1;" vertex="1" parent="1">
          <mxGeometry x="1215" y="170" width="120" height="60" as="geometry" />
        </mxCell>
        <mxCell id="ENTs0Gk-KkbxcG8ZbWc0-75" value="pick lock" style="rounded=0;whiteSpace=wrap;html=1;" vertex="1" parent="1">
          <mxGeometry x="1240" y="320" width="120" height="60" as="geometry" />
        </mxCell>
        <mxCell id="ENTs0Gk-KkbxcG8ZbWc0-77" value="pick up" style="rounded=0;whiteSpace=wrap;html=1;" vertex="1" parent="1">
          <mxGeometry x="1370" y="110" width="120" height="60" as="geometry" />
        </mxCell>
        <mxCell id="ENTs0Gk-KkbxcG8ZbWc0-79" value="ignore" style="rounded=0;whiteSpace=wrap;html=1;" vertex="1" parent="1">
          <mxGeometry x="1370" y="210" width="120" height="60" as="geometry" />
        </mxCell>
      </root>
    </mxGraphModel>
  </diagram>
</mxfile>
